# xmcd CD database file
# Copyright (C) 1993-1998 Ti Kan
# 
# Track frame offsets:
#     150
#     20602
#     36930
#     54475
#     74627
#     89157
#     104390
#     125072
#     139907
#     161170
#     180490
#     198412
# 
# Disc length: 2875 seconds
# 
# Revision: 1
# Processed by: cddbd v1.4b41PL1 Copyright (c) Steve Scherf et al.
# Submitted via: DiscPlay 4.0.4
# 
DISCID=b80b390c
DTITLE=Countdown Dance Masters - Ultimate Dance Trax [CD3]
DYEAR=1900
DGENRE=
TTITLE0=Where Do You Go
TTITLE1=Got Myself Together
TTITLE2=Let's Push It
TTITLE3=Woo Hah Got you all in check
TTITLE4=Don't give me your life
TTITLE5=The bomb
TTITLE6=Wrong
TTITLE7=If you wanna party
TTITLE8=Shimmy shake
TTITLE9=Fu gee la
TTITLE10=Get a way
TTITLE11=I like to move it
EXTD=
EXTT0=
EXTT1=
EXTT2=
EXTT3=
EXTT4=
EXTT5=
EXTT6=
EXTT7=
EXTT8=
EXTT9=
EXTT10=
EXTT11=
PLAYORDER=
